<svg id="Layer_1" data-name="Layer 1" xmlns="http://www.w3.org/2000/svg" viewBox="0 0 768 768"><defs><style>.cls-1{fill:#fff;}.cls-2{fill:#cc9c4e;}</style></defs><circle class="cls-1" cx="384" cy="384" r="372"/><path class="cls-2" d="M631,462.33a8.71,8.71,0,0,0-8,8.8v7.79L393,169.6V138.13a8.7,8.7,0,0,0-7.26-8.71,8.52,8.52,0,0,0-9.74,8.45v31.31l-28.23,38.1a63.68,63.68,0,0,0-121.55-12.91,46.61,46.61,0,0,0-79.73,33.1,44.59,44.59,0,0,0,.81,8.39A34.15,34.15,0,0,0,163.49,300H277.61L145,479v-8.09a8.7,8.7,0,0,0-7.26-8.71,8.52,8.52,0,0,0-9.74,8.45v33.77a8.53,8.53,0,0,0,7.16,8.45,8.72,8.72,0,0,0,8.33-3.57L179,461.25v26.08A25.61,25.61,0,0,0,204.5,513H328.25a56.75,56.75,0,0,0-5.55,9.18A55.81,55.81,0,0,0,317,546.56,57.69,57.69,0,0,0,337.46,590H317c-15.09,0-27.25,12.35-26.15,27.39A25.51,25.51,0,0,0,316.27,641H451.56c15.08,0,27.24-12.35,26.14-27.39A25.49,25.49,0,0,0,452.27,590H431.61c.88-.77,1.8-1.5,2.64-2.31A58.57,58.57,0,0,0,452,547.48h0A84,84,0,0,0,452,538a102.7,102.7,0,0,0-4.4-25h116A25.58,25.58,0,0,0,589,487.4v-26l35.51,47.94a8.74,8.74,0,0,0,8.33,3.57,8.53,8.53,0,0,0,7.16-8.43V470.81A8.49,8.49,0,0,0,631,462.33ZM162.41,283a17.09,17.09,0,0,1-17.07-17.07,16.88,16.88,0,0,1,13-16.52,8.54,8.54,0,0,0,6.08-11.2,31.16,31.16,0,0,1-2.05-10.68,29.77,29.77,0,0,1,58.5-7.9,8.53,8.53,0,0,0,16.76-2A46.9,46.9,0,0,1,331.45,219a44.79,44.79,0,0,1-1.64,12l-38.66,52ZM452.27,607a8.5,8.5,0,0,1,8.49,9,8.72,8.72,0,0,1-8.81,8H316.59a8.71,8.71,0,0,1-8.8-8,8.49,8.49,0,0,1,8.48-9Zm-67.69-47.39c.45,1.21,1.81,4.88,9.72,7.19a25.69,25.69,0,0,0,7.13,1.06,26.41,26.41,0,0,0,12.77-3.1,23,23,0,0,1-11.39,22.76,57.17,57.17,0,0,1-17.46,2.77c-1.47,0-2.91-.08-4.35-.19-6-2.83-21.89-11.41-22-23.25a16.73,16.73,0,0,1,6.27-12.5,59.5,59.5,0,0,1,6-4.31,73.77,73.77,0,0,0,7.89-5.73,33.23,33.23,0,0,0,11.17-16.67,24.64,24.64,0,0,1,1.32,3.91,18.9,18.9,0,0,1,.55,3.42,30.35,30.35,0,0,1-6.77,17A8.62,8.62,0,0,0,384.58,559.61ZM434.92,547a45,45,0,0,1-4.14,16.95,38.1,38.1,0,0,0-.76-4.48,43.4,43.4,0,0,0-3-8.34,34,34,0,0,0-2.58-4.6c-.12-.18-.68-.9-1.36-1.68l-.63-.73a8.57,8.57,0,0,0-11.62-2.3,8.34,8.34,0,0,0-3.39,4.27l0,.11c-.26.69-.46,1.37-.66,2.05a5.11,5.11,0,0,0-.17.7,2.61,2.61,0,0,1-.81.74,33.6,33.6,0,0,0,3-16.08,36.51,36.51,0,0,0-1-6.15,43.91,43.91,0,0,0-18.17-25.75c-.13-.09-.73-.44-1.19-.7a8.51,8.51,0,0,0-5.7-2.33A8.63,8.63,0,0,0,374,507v0c0,1.81,0,3.61,0,5.42a43.9,43.9,0,0,1-.57,10.49,16.55,16.55,0,0,1-5.87,8.42,59.49,59.49,0,0,1-6.18,4.43,74.63,74.63,0,0,0-7.74,5.6A33.75,33.75,0,0,0,341.45,567c0,.66.16,1.31.21,2a37.82,37.82,0,0,1-3.09-38.77,37,37,0,0,1,6.55-9.6,26.81,26.81,0,0,0,8.26-14c.08-.51.07-1,.12-1.53v-.1a23.13,23.13,0,0,0-12.78-21.53,32.46,32.46,0,0,1,11.78.67,8.54,8.54,0,0,0,10.11-10.38c-2.76-11.21-2.36-31.47,16.63-36.28a30.47,30.47,0,0,1,13.27,0,28.88,28.88,0,0,0-2.09,9.65,47.53,47.53,0,0,0,14.15,33.19,145.8,145.8,0,0,1,22.25,27.64,72.39,72.39,0,0,1,8.05,31.51A67.92,67.92,0,0,1,434.92,547Zm5.29-50a157.46,157.46,0,0,0-22.79-28.5A31.32,31.32,0,0,1,408,447.85a11.52,11.52,0,0,1,4.17-8.56l.07-.05a8.54,8.54,0,0,0-3.73-14.68c-.89-.3-2.78-1-4.45-1.6-2.07-.75-3.91-1.38-4.2-1.46a48.87,48.87,0,0,0-24.29-.63,41.86,41.86,0,0,0-30.68,45.2A35.23,35.23,0,0,0,319.43,476a11.64,11.64,0,0,0-3,11.3,11.85,11.85,0,0,0,8.49,8.27,9.27,9.27,0,0,0,3.22.48H253.85L347,332.09c.06-.11.13-.22.18-.33l37.11-65.49,37.17,65.59.13.23L514.69,497ZM248,472.59V445.83a33.86,33.86,0,0,1,10-24.13l43.48-43.49Zm219.52-94.38L511,421.7a34,34,0,0,1,10,24.13v26.76ZM572,487.47a8.54,8.54,0,0,1-8.52,8.53H538V445.41a50.87,50.87,0,0,0-15-36.21l-87.07-87.12L393,246.28V223.66a8.72,8.72,0,0,0-8-8.8,8.5,8.5,0,0,0-9,8.48v22.94l-42.94,75.8L246,409.2a50.87,50.87,0,0,0-15,36.21V496H205.52a8.54,8.54,0,0,1-8.52-8.53v-49L344.42,240c.07-.08.12-.16.18-.24L384.5,186,572,438.5v49Z"/><path class="cls-2" d="M509,277.7h0a7.58,7.58,0,0,0-.88.6,6,6,0,0,0-3.09,3.09,7.76,7.76,0,0,0-.57.84v.06a8.45,8.45,0,0,0-.63,3.06c0,.07,0,.13,0,.2s.08.31.09.46a8.67,8.67,0,0,0,.56,2.8l0,.07a8.4,8.4,0,0,0,1.6,2.43c.13.13.27.24.41.36a12.47,12.47,0,0,0,2.13,1.48c.14.08.23.2.38.27a84.23,84.23,0,0,0,33.21,6.74,85.34,85.34,0,0,0,0-170.67,84.23,84.23,0,0,0-33,6.68l-.1,0-.08,0c-.25.16-.49.32-.73.5a8.34,8.34,0,0,0-2,1.36,8,8,0,0,0-1.12,1.65,9,9,0,0,0-.71,1v.08a8.56,8.56,0,0,0-.56,2.79c0,.16-.09.31-.09.46a1.42,1.42,0,0,0,0,.2,8.55,8.55,0,0,0,.63,3.07v.06a8.19,8.19,0,0,0,.58.83,7.86,7.86,0,0,0,1.27,1.86,8.36,8.36,0,0,0,1.82,1.24,10.22,10.22,0,0,0,.87.59,68.24,68.24,0,0,1,0,125.75Zm58.74-62.87A85,85,0,0,0,534,147.09a68.24,68.24,0,1,1,8.12,136,66.69,66.69,0,0,1-8.12-.53A85,85,0,0,0,567.74,214.83Z"/><path class="cls-2" d="M232.07,551.27,222,564.69V539.51a8.71,8.71,0,0,0-8-8.8,8.5,8.5,0,0,0-9,8.48v25.5l-10.2-13.6a8.5,8.5,0,1,0-13.6,10.2l25.5,34c.11.15.29.21.4.34a8.25,8.25,0,0,0,2,1.63c.28.21.58.41.89.6a8,8,0,0,0,7.12,0c.31-.19.61-.39.89-.6a8.25,8.25,0,0,0,2-1.63c.11-.13.29-.19.4-.34l25.5-34a8.5,8.5,0,0,0-8.45-13.44A8.71,8.71,0,0,0,232.07,551.27Z"/><path class="cls-2" d="M573.07,551.26,563,564.69V539.51a8.72,8.72,0,0,0-8-8.8,8.5,8.5,0,0,0-9,8.48v25.5l-10.2-13.6a8.5,8.5,0,1,0-13.6,10.2l25.5,34c.11.14.29.2.4.33a8.25,8.25,0,0,0,1.95,1.63c.28.21.58.41.89.6a8,8,0,0,0,7.12,0c.31-.19.61-.39.89-.6a8.25,8.25,0,0,0,1.95-1.63c.11-.13.29-.19.4-.33l25.5-34a8.51,8.51,0,0,0-8.44-13.45A8.73,8.73,0,0,0,573.07,551.26Z"/></svg>